<?xml version="1.0" encoding="UTF-8" standalone="no"?>
<!-- Generator: Adobe Illustrator 16.0.0, SVG Export Plug-In . SVG Version: 6.00 Build 0)  -->

<svg
   xmlns:dc="http://purl.org/dc/elements/1.1/"
   xmlns:cc="http://creativecommons.org/ns#"
   xmlns:rdf="http://www.w3.org/1999/02/22-rdf-syntax-ns#"
   xmlns:svg="http://www.w3.org/2000/svg"
   xmlns="http://www.w3.org/2000/svg"
   xmlns:sodipodi="http://sodipodi.sourceforge.net/DTD/sodipodi-0.dtd"
   xmlns:inkscape="http://www.inkscape.org/namespaces/inkscape"
   version="1.1"
   id="Layer_1"
   x="0px"
   y="0px"
   width="50px"
   height="50px"
   viewBox="0 0 50 50"
   enable-background="new 0 0 50 50"
   xml:space="preserve"
   inkscape:version="0.91 r13725"
   sodipodi:docname="magnet.svg"
   inkscape:export-filename="/home/aliquando/recherche/jerboa/JerboaModelerEditor/rc/image/raw/magnet.png"
   inkscape:export-xdpi="36"
   inkscape:export-ydpi="36"><metadata
     id="metadata23"><rdf:RDF><cc:Work
         rdf:about=""><dc:format>image/svg+xml</dc:format><dc:type
           rdf:resource="http://purl.org/dc/dcmitype/StillImage" /></cc:Work></rdf:RDF></metadata><defs
     id="defs21" /><sodipodi:namedview
     pagecolor="#ffffff"
     bordercolor="#666666"
     borderopacity="1"
     objecttolerance="10"
     gridtolerance="10"
     guidetolerance="10"
     inkscape:pageopacity="0"
     inkscape:pageshadow="2"
     inkscape:window-width="1871"
     inkscape:window-height="1062"
     id="namedview19"
     showgrid="false"
     inkscape:zoom="13.350176"
     inkscape:cx="15.155574"
     inkscape:cy="26.527388"
     inkscape:window-x="1969"
     inkscape:window-y="18"
     inkscape:window-maximized="1"
     inkscape:current-layer="Layer_1" /><g
     id="g4158"
     transform="matrix(1.5326456,0.88487337,-0.88487337,1.5326456,8.9536562,-44.965677)"><path
       d="m 37.465,23.267 -3.045,-5.274 -5.273,3.045 3.045,5.274 c 1.559,2.7 0.63,6.166 -2.07,7.725 -2.7,1.559 -6.166,0.63 -7.726,-2.07 l -3.045,-5.274 -5.273,3.045 3.045,5.274 c 3.238,5.609 10.436,7.537 16.044,4.299 5.608,-3.239 7.536,-10.436 4.298,-16.044 z"
       id="path5"
       inkscape:connector-curvature="0" /><polygon
       points="33.985,17.239 32.245,14.225 29.813,15.629 27.346,17.053 26.971,17.27 28.711,20.284 "
       id="polygon7" /><polygon
       points="14.743,24.329 12.276,25.753 11.901,25.97 13.642,28.984 18.916,25.939 17.176,22.925 "
       id="polygon9" /></g></svg>